<svg width="24" height="24" viewBox="0 0 24 24" fill="none" xmlns="http://www.w3.org/2000/svg">
<path d="M21 9.99791C21.003 11.7847 20.4715 13.5315 19.474 15.0139C18.6514 16.2409 17.5391 17.2462 16.2355 17.9411C14.9319 18.636 13.4772 18.9989 12 18.9979C10.5228 18.9989 9.06808 18.636 7.76451 17.9411C6.46093 17.2462 5.34865 16.2409 4.526 15.0139C3.74273 13.8463 3.2439 12.5115 3.06951 11.1164C2.89511 9.72124 3.05 8.30467 3.52175 6.9802C3.9935 5.65573 4.769 4.46021 5.78607 3.48947C6.80314 2.51873 8.0335 1.79978 9.37851 1.39025C10.7235 0.980724 12.1458 0.892009 13.5312 1.13122C14.9167 1.37043 16.2269 1.93091 17.3567 2.76773C18.4865 3.60455 19.4046 4.69444 20.0373 5.95002C20.67 7.20559 20.9997 8.59194 21 9.99791Z" stroke="#808080" stroke-width="1.5"/>
<path d="M12.92 6.75C12.92 7.44 12.36 8 11.67 8V9.5C12.3993 9.5 13.0988 9.21027 13.6145 8.69454C14.1303 8.17882 14.42 7.47935 14.42 6.75H12.92ZM11.67 8C10.98 8 10.42 7.44 10.42 6.75H8.92C8.92 7.47935 9.20973 8.17882 9.72546 8.69454C10.2412 9.21027 10.9407 9.5 11.67 9.5V8ZM10.42 6.75C10.42 6.06 10.98 5.5 11.67 5.5V4C10.9407 4 10.2412 4.28973 9.72546 4.80546C9.20973 5.32118 8.92 6.02065 8.92 6.75H10.42ZM11.67 5.5C12.36 5.5 12.92 6.06 12.92 6.75H14.42C14.42 6.02065 14.1303 5.32118 13.6145 4.80546C13.0988 4.28973 12.3993 4 11.67 4V5.5ZM4.836 15.606L4.117 15.392L4 15.784L4.267 16.094L4.836 15.606ZM18.504 15.606L19.074 16.095L19.34 15.785L19.223 15.392L18.504 15.606ZM8.67 13.5H14.67V12H8.67V13.5ZM8.67 12C7.6471 12 6.65152 12.3302 5.83123 12.9413C5.01095 13.5524 4.40975 14.4119 4.117 15.392L5.555 15.82C5.75553 15.1496 6.16693 14.5618 6.72811 14.1439C7.28928 13.7259 7.97029 13.5001 8.67 13.5V12ZM11.67 18C10.4794 18.0014 9.30271 17.7444 8.22108 17.2468C7.13946 16.7493 6.17866 16.023 5.405 15.118L4.267 16.094C5.18146 17.163 6.31684 18.022 7.59489 18.6098C8.87294 19.1976 10.2632 19.5013 11.67 19.5V18ZM14.67 13.5C16.14 13.5 17.385 14.478 17.785 15.82L19.223 15.392C18.9303 14.4119 18.3291 13.5524 17.5088 12.9413C16.6885 12.3302 15.6929 12 14.67 12V13.5ZM17.935 15.118C17.1613 16.023 16.2005 16.7493 15.1189 17.2468C14.0373 17.7444 12.8606 18.0014 11.67 18V19.5C13.0768 19.5013 14.4671 19.1976 15.7451 18.6098C17.0232 18.022 18.1595 17.164 19.074 16.095L17.935 15.118Z" fill="#808080"/>
</svg>
