<svg width="22" height="22" viewBox="0 0 22 22" fill="none" xmlns="http://www.w3.org/2000/svg">
<path d="M8.69977 5.82134C8.69977 5.66884 8.76035 5.52259 8.86818 5.41475C8.97601 5.30692 9.12227 5.24634 9.27477 5.24634H13.8748C14.0273 5.24634 14.1735 5.30692 14.2814 5.41475C14.3892 5.52259 14.4498 5.66884 14.4498 5.82134C14.4498 5.97384 14.3892 6.1201 14.2814 6.22793C14.1735 6.33577 14.0273 6.39635 13.8748 6.39635H9.27477C9.12227 6.39635 8.97601 6.33577 8.86818 6.22793C8.76035 6.1201 8.69977 5.97384 8.69977 5.82134ZM9.27477 7.54636C9.12227 7.54636 8.97601 7.60694 8.86818 7.71477C8.76035 7.82261 8.69977 7.96886 8.69977 8.12136C8.69977 8.27386 8.76035 8.42012 8.86818 8.52795C8.97601 8.63579 9.12227 8.69637 9.27477 8.69637H13.8748C14.0273 8.69637 14.1735 8.63579 14.2814 8.52795C14.3892 8.42012 14.4498 8.27386 14.4498 8.12136C14.4498 7.96886 14.3892 7.82261 14.2814 7.71477C14.1735 7.60694 14.0273 7.54636 13.8748 7.54636H9.27477ZM8.69977 13.2964C8.69977 13.1439 8.76035 12.9977 8.86818 12.8898C8.97601 12.782 9.12227 12.7214 9.27477 12.7214H13.8748C14.0273 12.7214 14.1735 12.782 14.2814 12.8898C14.3892 12.9977 14.4498 13.1439 14.4498 13.2964C14.4498 13.4489 14.3892 13.5952 14.2814 13.703C14.1735 13.8108 14.0273 13.8714 13.8748 13.8714H9.27477C9.12227 13.8714 8.97601 13.8108 8.86818 13.703C8.76035 13.5952 8.69977 13.4489 8.69977 13.2964ZM9.27477 15.0214C9.12227 15.0214 8.97601 15.082 8.86818 15.1898C8.76035 15.2977 8.69977 15.4439 8.69977 15.5964C8.69977 15.7489 8.76035 15.8952 8.86818 16.003C8.97601 16.1109 9.12227 16.1714 9.27477 16.1714H13.8748C14.0273 16.1714 14.1735 16.1109 14.2814 16.003C14.3892 15.8952 14.4498 15.7489 14.4498 15.5964C14.4498 15.4439 14.3892 15.2977 14.2814 15.1898C14.1735 15.082 14.0273 15.0214 13.8748 15.0214H9.27477Z" fill="#808080"/>
<path fill-rule="evenodd" clip-rule="evenodd" d="M2.94977 12.7214C2.94977 12.5689 3.01035 12.4226 3.11818 12.3148C3.22602 12.2069 3.37227 12.1464 3.52477 12.1464H6.39977C6.55227 12.1464 6.69852 12.2069 6.80635 12.3148C6.91419 12.4226 6.97477 12.5689 6.97477 12.7214V15.5964C6.97477 15.7489 6.91419 15.8951 6.80635 16.003C6.69852 16.1108 6.55227 16.1714 6.39977 16.1714H3.52477C3.37227 16.1714 3.22602 16.1108 3.11818 16.003C3.01035 15.8951 2.94977 15.7489 2.94977 15.5964V12.7214ZM4.09977 13.2964V15.0214H5.82477V13.2964H4.09977Z" fill="#808080"/>
<path d="M7.381 6.22801C7.48574 6.11956 7.5437 5.97431 7.54239 5.82355C7.54108 5.67278 7.48061 5.52857 7.374 5.42196C7.26739 5.31534 7.12317 5.25487 6.97241 5.25356C6.82164 5.25225 6.6764 5.31021 6.56795 5.41495L4.67448 7.30844L3.931 6.56496C3.82256 6.46022 3.67731 6.40226 3.52655 6.40357C3.37578 6.40488 3.23157 6.46535 3.12496 6.57197C3.01835 6.67858 2.95787 6.82279 2.95656 6.97356C2.95525 7.12432 3.01321 7.26957 3.11795 7.37802L4.67448 8.93456L7.381 6.22801Z" fill="#808080"/>
<path fill-rule="evenodd" clip-rule="evenodd" d="M2.94978 0.64624C2.33978 0.64624 1.75477 0.888563 1.32343 1.3199C0.892101 1.75124 0.64978 2.33626 0.64978 2.94626V19.0464C0.64978 19.6564 0.892101 20.2414 1.32343 20.6728C1.75477 21.1041 2.33978 21.3464 2.94978 21.3464H14.4498C15.0598 21.3464 15.6448 21.1041 16.0761 20.6728C16.5075 20.2414 16.7498 19.6564 16.7498 19.0464V2.94626C16.7498 2.33626 16.5075 1.75124 16.0761 1.3199C15.6448 0.888563 15.0598 0.64624 14.4498 0.64624H2.94978ZM1.79978 2.94626C1.79978 2.64126 1.92094 2.34875 2.13661 2.13308C2.35227 1.91741 2.64478 1.79625 2.94978 1.79625H14.4498C14.7548 1.79625 15.0473 1.91741 15.263 2.13308C15.4786 2.34875 15.5998 2.64126 15.5998 2.94626V19.0464C15.5998 19.3514 15.4786 19.6439 15.263 19.8596C15.0473 20.0753 14.7548 20.1964 14.4498 20.1964H2.94978C2.64478 20.1964 2.35227 20.0753 2.13661 19.8596C1.92094 19.6439 1.79978 19.3514 1.79978 19.0464V2.94626ZM17.8998 6.39629C17.8998 5.93879 18.0815 5.50003 18.405 5.17652C18.7285 4.85302 19.1673 4.67128 19.6248 4.67128C20.0823 4.67128 20.521 4.85302 20.8445 5.17652C21.168 5.50003 21.3498 5.93879 21.3498 6.39629V18.0706L19.6248 20.6581L17.8998 18.0706V6.39629ZM19.6248 5.82129C19.4723 5.82129 19.326 5.88187 19.2182 5.9897C19.1104 6.09754 19.0498 6.24379 19.0498 6.39629V7.5463H20.1998V6.39629C20.1998 6.24379 20.1392 6.09754 20.0314 5.9897C19.9235 5.88187 19.7773 5.82129 19.6248 5.82129ZM19.6248 18.5847L19.0498 17.7222V8.69631H20.1998V17.7222L19.6248 18.5847Z" fill="#808080"/>
</svg>
