<svg width="24" height="24" viewBox="0 0 24 24" fill="none" xmlns="http://www.w3.org/2000/svg">
<path d="M12.8484 1.75173C12.6234 1.52677 12.3182 1.40039 12 1.40039C11.6819 1.40039 11.3767 1.52677 11.1516 1.75173L2.75165 10.1517C2.53306 10.3781 2.41211 10.6812 2.41484 10.9958C2.41757 11.3105 2.54378 11.6114 2.76627 11.8339C2.98876 12.0564 3.28973 12.1826 3.60437 12.1853C3.919 12.1881 4.22213 12.0671 4.44845 11.8485L4.80005 11.4969V19.4001C4.80005 19.7184 4.92648 20.0236 5.15152 20.2487C5.37656 20.4737 5.68179 20.6001 6.00005 20.6001H8.40005C8.71831 20.6001 9.02353 20.4737 9.24858 20.2487C9.47362 20.0236 9.60005 19.7184 9.60005 19.4001V17.0001C9.60005 16.6819 9.72648 16.3766 9.95152 16.1516C10.1766 15.9266 10.4818 15.8001 10.8 15.8001H13.2C13.5183 15.8001 13.8235 15.9266 14.0486 16.1516C14.2736 16.3766 14.4 16.6819 14.4 17.0001V19.4001C14.4 19.7184 14.5265 20.0236 14.7515 20.2487C14.9766 20.4737 15.2818 20.6001 15.6 20.6001H18C18.3183 20.6001 18.6235 20.4737 18.8486 20.2487C19.0736 20.0236 19.2 19.7184 19.2 19.4001V11.4969L19.5516 11.8485C19.778 12.0671 20.0811 12.1881 20.3957 12.1853C20.7104 12.1826 21.0113 12.0564 21.2338 11.8339C21.4563 11.6114 21.5825 11.3105 21.5853 10.9958C21.588 10.6812 21.467 10.3781 21.2484 10.1517L12.8484 1.75173Z" fill="#7B61FF"/>
</svg>
