<svg width="18" height="18" viewBox="0 0 18 18" fill="none" xmlns="http://www.w3.org/2000/svg">
<mask id="mask0_72_1520" style="mask-type:alpha" maskUnits="userSpaceOnUse" x="0" y="0" width="18" height="18">
<rect width="18" height="18" fill="#D9D9D9"/>
</mask>
<g mask="url(#mask0_72_1520)">
<path d="M9 10.5C8.375 10.5 7.84375 10.2812 7.40625 9.84375C6.96875 9.40625 6.75 8.875 6.75 8.25V3.75C6.75 3.125 6.96875 2.59375 7.40625 2.15625C7.84375 1.71875 8.375 1.5 9 1.5C9.625 1.5 10.1562 1.71875 10.5937 2.15625C11.0312 2.59375 11.25 3.125 11.25 3.75V8.25C11.25 8.875 11.0312 9.40625 10.5937 9.84375C10.1562 10.2812 9.625 10.5 9 10.5ZM8.25 15.75V13.4437C6.95 13.2687 5.875 12.6875 5.025 11.7C4.175 10.7125 3.75 9.5625 3.75 8.25H5.25C5.25 9.2875 5.61575 10.1717 6.34725 10.9027C7.07825 11.6342 7.9625 12 9 12C10.0375 12 10.922 11.6342 11.6535 10.9027C12.3845 10.1717 12.75 9.2875 12.75 8.25H14.25C14.25 9.5625 13.825 10.7125 12.975 11.7C12.125 12.6875 11.05 13.2687 9.75 13.4437V15.75H8.25ZM9 9C9.2125 9 9.39075 8.928 9.53475 8.784C9.67825 8.6405 9.75 8.4625 9.75 8.25V3.75C9.75 3.5375 9.67825 3.35925 9.53475 3.21525C9.39075 3.07175 9.2125 3 9 3C8.7875 3 8.6095 3.07175 8.466 3.21525C8.322 3.35925 8.25 3.5375 8.25 3.75V8.25C8.25 8.4625 8.322 8.6405 8.466 8.784C8.6095 8.928 8.7875 9 9 9Z" fill="black" fill-opacity="0.74"/>
</g>
</svg>
